<svg width="61" height="79" viewBox="0 0 61 79" fill="none" xmlns="http://www.w3.org/2000/svg">
<g clip-path="url(#clip0_501_2495)">
<path d="M60.253 47.857C60.0222 43.1084 59.0957 38.0881 56.3568 34.2032L56.2238 34.0393C52.2414 29.7707 48.6886 26.9397 45.2221 25.2916C45.8505 24.549 46.4196 23.7587 46.924 22.9279C49.1152 19.2956 49.9608 15.4392 49.3811 11.7911C48.7631 7.95792 46.6155 4.51275 43.4894 2.33507C42.058 1.33305 40.4362 0.631501 38.723 0.27326C37.0097 -0.084981 35.241 -0.0923938 33.5247 0.251474C27.617 1.41431 23.4772 6.36378 21.8497 14.2182L21.8263 14.3736C21.5604 17.0016 22.0146 20.0504 23.1953 23.6658C18.4619 25.0273 14.4007 26.6754 10.8246 28.6892L10.7385 28.7442C8.904 29.9419 7.23847 31.3775 5.78594 33.0129C0.316467 39.1875 -1.34288 46.8792 1.09934 54.6554C4.29891 64.8271 14.1274 73.8063 24.995 76.4914C29.236 77.5337 32.9216 78.0538 36.2233 78.0538C38.7038 78.0538 40.9737 77.7589 43.0937 77.1754C46.2134 76.317 48.2887 73.2947 49.5821 70.5292C50.3427 68.8981 52.2414 67.8103 53.4859 66.5195C55.0295 64.9116 56.414 63.16 57.6204 61.2889C59.7606 57.9811 60.3498 53.9588 60.319 50.095C60.3084 49.3592 60.2892 48.6118 60.253 47.857ZM24.9323 14.7626C25.7311 10.957 27.984 4.50852 34.1268 3.29917C35.4303 3.0427 36.7726 3.05097 38.0729 3.32348C39.3731 3.59598 40.6044 4.1271 41.6928 4.88486C44.1265 6.57626 45.8007 9.27087 46.2858 12.2731C46.8729 15.9667 45.4965 19.2406 44.2361 21.3316C42.3033 24.5442 39.0878 26.9238 35.8404 27.5454C33.9885 27.9006 32.1409 27.7568 30.4613 26.8699C28.7456 25.9597 26.7746 24.5442 26.146 22.6805C25.6966 21.3461 25.3594 19.9771 25.1376 18.5873C24.9482 17.3981 24.6802 15.9646 24.9323 14.7626ZM54.9282 59.5848C53.254 62.6896 50.5671 65.3176 47.7856 67.4329L47.4569 67.3008L47.3782 67.269C44.9211 66.4455 41.1269 65.9159 37.3625 65.4191L42.4331 61.9422C46.6506 58.8554 49.429 55.7051 50.9149 52.2917C52.2765 49.1742 53.1487 44.267 51.166 40.713C49.3194 37.4359 46.5017 35.5183 43.0203 35.1609C41.5786 35.0066 40.1207 35.1119 38.7166 35.4717C37.1029 35.9075 35.6065 36.6935 34.3353 37.7731C33.6282 38.3766 32.9865 39.0519 32.4206 39.788C32.3664 39.733 32.3143 39.6823 32.2568 39.6326L32.1707 39.5544C31.2134 38.6526 30.222 37.7192 29.0647 36.9179C24.7142 33.9315 18.2896 34.8502 14.4401 39.0173C12.0925 41.5544 11.9202 44.8421 12.0691 47.727C12.1813 49.85 12.6741 51.9361 13.5243 53.8869C17.3897 62.8376 26.9682 67.1961 36.1808 68.4044C39.7973 68.879 43.8808 69.4161 46.2517 70.1698C44.9753 72.449 43.6617 73.7397 42.2097 74.1869C37.8593 75.3931 32.6366 75.1668 25.762 73.4723C15.8952 71.0409 6.99003 62.919 4.09574 53.7273C2.60658 48.9839 2.10026 41.9001 8.14838 35.0647C9.40229 33.6511 10.8391 32.4088 12.4212 31.3701C15.9505 29.3901 20.0032 27.7716 24.7919 26.4471C27.8276 29.2305 30.8719 31.6492 36.4275 30.592C38.6889 30.1692 40.8791 29.1216 42.7969 27.6131C42.9607 27.4841 44.4669 28.3795 44.6722 28.4894C45.3596 28.8591 46.0275 29.2638 46.673 29.7019C48.1624 30.7257 49.5703 31.8619 50.8841 33.1006C52.3126 34.4252 53.756 35.7286 54.6825 37.4591C57.9076 43.5112 58.2522 52.5031 55.3612 58.7264C55.2271 59.0161 55.0839 59.3018 54.9314 59.5837L54.9282 59.5848ZM32.5589 63.9951C32.277 63.9105 31.9558 63.8017 31.8143 63.7467C31.6261 63.6843 31.4782 63.641 31.3889 63.6072C26.4204 62.1451 19.6989 58.3215 17.1089 52.3466C16.4413 50.8206 16.0568 49.1871 15.9739 47.5251C15.8569 45.3474 15.9431 43.1232 17.312 41.6464C18.7587 40.0903 20.9892 39.0269 23.2272 39.0269C24.5135 39.0128 25.773 39.393 26.8342 40.1157C27.75 40.75 28.5946 41.5386 29.487 42.3779L29.5731 42.4562C30.1199 42.9764 30.6397 43.524 31.1304 44.0968C31.725 44.7734 32.2494 45.7301 33.2578 45.0218C34.4161 44.2216 35.2064 42.6581 36.1616 41.6242C37.1391 40.5586 38.2975 39.6093 39.7218 39.2288C40.6718 38.9881 41.658 38.9215 42.632 39.0321C44.8147 39.2499 46.5368 40.455 47.7462 42.6095C48.9556 44.7639 48.3727 48.3412 47.3207 50.7493C46.1156 53.5095 43.7606 56.1407 40.1611 58.7835L32.5589 63.9951Z" fill="white"/>
</g>
<defs>
<clipPath id="clip0_501_2495">
<rect width="60.3152" height="78.055" fill="white" transform="matrix(-1 0 0 1 60.3152 0)"/>
</clipPath>
</defs>
</svg>
