<svg width="231" height="226" viewBox="0 0 231 226" fill="none" xmlns="http://www.w3.org/2000/svg">
<path d="M90.884 149.177L77.866 170.326L102.835 199.982H128.015L151.489 169.825L136.958 149.177H90.884Z" fill="#3F4553"/>
<path d="M77.8656 170.327C77.8656 170.327 21.8643 174.657 7.81612 189.325C-6.23208 203.993 0.377226 219.919 14.0608 219.919C39.2491 219.919 92.5429 221.46 117.759 219.919L119.263 185.578L77.8656 170.327Z" fill="#3F4553"/>
<path d="M150.039 169.597C150.039 169.597 208.684 174.657 222.732 189.325C236.781 203.993 228.685 213.711 216.488 219.919C199.322 228.662 137.45 227.212 105.36 216.592L111.295 185.578L150.039 169.597Z" fill="#3F4553"/>
<path d="M152.619 198.405L148.653 188.158L153.594 185.961C153.594 185.961 152.91 179.899 158.955 178.732C164.999 177.565 172.201 181.467 179.22 178.322C185.693 175.423 193.615 172.751 201.008 176.763C202.102 177.355 202.612 178.659 202.239 179.844L202.211 179.935C201.838 181.129 200.671 181.868 199.422 181.74C196.815 181.476 192.165 181.53 187.571 184.311C179.649 189.124 152.619 198.405 152.619 198.405Z" fill="#FEBBA0"/>
<path d="M198.756 198.988C198.756 198.988 159.62 192.032 77.1813 190.957L69.2228 201.75C69.2228 201.75 89.7344 213.474 108.988 217.713C128.242 221.952 194.708 235.298 224.391 214.741L198.756 198.988Z" fill="#3F4553"/>
<path d="M108.989 217.722C89.2521 213.164 68.6038 201.477 68.6038 201.477L69.8345 199.389" stroke="#6E758F" stroke-width="1.5925" stroke-miterlimit="10" stroke-linecap="round"/>
<path d="M77.1815 190.957C77.1815 190.957 167.752 188.887 191.919 202.908" stroke="#6E758F" stroke-width="1.5925" stroke-miterlimit="10" stroke-linecap="round"/>
<path d="M32.7218 196.828C32.7218 196.828 49.2587 189.079 60.5629 194.157" stroke="#6E758F" stroke-width="1.5925" stroke-miterlimit="10" stroke-linecap="round"/>
<path d="M71.1287 199.964L77.1728 190.756L71.1287 187.484C71.1287 187.484 69.0137 182.187 63.0882 180.546C57.1535 178.914 52.9326 181.549 46.1774 177.866C39.951 174.466 32.2569 171.193 24.581 174.611C23.4505 175.113 22.8306 176.371 23.1132 177.583L23.1315 177.675C23.4141 178.896 24.5172 179.717 25.7661 179.689C28.3825 179.625 33.0226 180.045 37.3802 183.181C44.9012 188.596 71.1287 199.964 71.1287 199.964Z" fill="#FEBBA0"/>
<path d="M123.164 191.285L147.924 188.851" stroke="#6E758F" stroke-width="1.5925" stroke-miterlimit="10" stroke-linecap="round"/>
<path d="M91.6768 180.555L105.488 190.555" stroke="#6E758F" stroke-width="1.5925" stroke-miterlimit="10" stroke-linecap="round"/>
<path d="M88.113 44.4575C88.6964 50.1643 93.6648 54.3213 99.2075 53.7561C104.75 53.1909 108.77 48.104 108.187 42.4063C107.604 36.6995 102.635 32.5425 97.0925 33.1077C91.5589 33.6638 87.5386 38.7507 88.113 44.4575Z" fill="#3F4553"/>
<path d="M108.815 48.606C108.815 48.606 91.2026 45.944 88.4313 29.3251C85.9881 14.6387 95.8428 2.8696 106.646 0.83667C106.655 0.83667 132.609 40.8389 108.815 48.606Z" fill="#3F4553"/>
<path d="M109.22 2.41366C107.925 3.0518 106.694 3.8905 105.573 4.97533C95.5361 14.6295 101.89 33.3726 110.879 41.8325C115.856 46.5091 123.131 48.6879 129.485 46.2995C138.775 42.8079 141.683 32.2877 139.796 22.9162C138.392 15.9331 134.517 9.34203 128.801 5.23971C123.085 1.14649 115.364 -0.5856 109.22 2.41366Z" fill="#FDBCA0"/>
<path d="M107.552 36.1806C105.792 37.9218 102.729 38.6329 100.377 37.8033C98.0253 36.9737 96.0926 34.7585 95.4818 32.1877C94.9349 29.8812 95.5274 27.2558 97.223 25.8427C98.9187 24.4297 101.973 24.5209 103.422 26.3532L107.552 36.1806Z" fill="#FDBCA0"/>
<path d="M104.98 30.0533L106.831 63.1819C107.077 69.3081 112.045 74.1762 118.172 74.2947C125.246 74.4405 130.798 68.2597 129.895 61.2402L126.157 30.4818L104.98 30.0533Z" fill="#FDBCA0"/>
<path d="M128.672 51.2494L128.207 46.7094C128.207 46.7094 119.09 49.5081 110.877 41.8231C110.877 41.8322 115.608 50.4654 128.672 51.2494Z" fill="#DF8370"/>
<path d="M101.36 25.0486C113.229 24.4378 124.059 16.4702 130.04 6.20526C130.04 6.20526 119.118 -4.15995 103.156 1.90238C89.928 6.91633 101.36 25.0486 101.36 25.0486Z" fill="#3F4553"/>
<path d="M102.664 32.6698C101.297 32.8066 100.102 32.0681 99.993 31.0198C99.9109 30.2266 100.467 29.4882 101.324 29.1053" stroke="#444359" stroke-width="1.1144" stroke-miterlimit="10" stroke-linecap="round"/>
<path d="M131.179 30.0809C131.453 29.2513 131.927 28.5949 132.456 27.975L132.711 28.7773C132.109 28.5494 131.781 28.2029 131.444 27.8656C131.125 27.5101 130.842 27.1546 130.587 26.7717C130.076 26.015 129.648 25.2128 129.338 24.365C129.976 25.0122 130.56 25.6777 131.17 26.3159C131.48 26.6258 131.772 26.9449 132.091 27.2184C132.392 27.4828 132.747 27.7562 132.994 27.8201L133.732 27.9933L133.249 28.6223C132.757 29.2696 132.21 29.8712 131.453 30.3088C131.362 30.3635 131.252 30.327 131.198 30.245C131.17 30.1812 131.17 30.1265 131.179 30.0809Z" fill="#444359"/>
<path d="M133.85 32.9799C133.485 33.7274 132.865 34.3747 132.063 34.7667C131.27 35.1769 130.285 35.2589 129.41 35.0037C128.517 34.7575 127.824 34.1741 127.231 33.5724C126.967 33.2442 126.702 32.9069 126.484 32.5605C126.292 32.1867 126.092 31.8221 125.946 31.4392C126.283 31.6945 126.575 31.968 126.867 32.2414L127.769 32.989C128.407 33.4083 129.009 33.8641 129.702 34.0282C130.367 34.2379 131.078 34.2288 131.78 34.0373C132.473 33.8368 133.166 33.4448 133.85 32.9799Z" fill="#444359"/>
<path d="M124.305 21.0649C124.661 22.1224 124.861 23.2163 124.788 24.3923C124.743 24.9666 124.606 25.5957 124.178 26.1518C123.74 26.717 123.002 26.9631 122.354 26.9449C121.689 26.9358 121.033 26.644 120.586 26.2338C120.121 25.8236 119.756 25.3495 119.483 24.8481C118.936 23.8362 118.589 22.7787 118.416 21.6665C118.389 21.4933 118.507 21.3292 118.681 21.2928C118.845 21.2654 118.99 21.3657 119.036 21.5116L119.045 21.5298C119.355 22.5144 119.765 23.508 120.294 24.365C120.823 25.1945 121.543 25.9603 122.391 25.933C122.81 25.9512 123.202 25.8418 123.439 25.541C123.704 25.2492 123.831 24.7752 123.904 24.292C124.041 23.3166 123.95 22.2409 123.786 21.2107V21.1925C123.758 21.0466 123.868 20.9008 124.014 20.8825C124.132 20.8643 124.26 20.9464 124.305 21.0649Z" fill="#444359"/>
<path d="M137.541 18.9954C137.842 19.8888 138.006 20.8004 137.988 21.7758C137.979 22.259 137.888 22.7877 137.578 23.2891C137.277 23.8179 136.603 24.1461 136.019 24.1187C135.408 24.1096 134.852 23.7905 134.497 23.4168C134.132 23.0339 133.849 22.6236 133.64 22.1861C133.229 21.3109 132.974 20.4175 132.847 19.4785C132.819 19.3053 132.947 19.1412 133.129 19.1139C133.284 19.0956 133.43 19.1868 133.476 19.3327L133.485 19.3509C133.749 20.1714 134.068 21.0101 134.478 21.7394C134.889 22.4504 135.445 23.1342 136.056 23.0977C136.365 23.1068 136.612 23.0156 136.776 22.7604C136.958 22.5051 137.049 22.1131 137.104 21.7029C137.195 20.8824 137.122 19.9799 137.022 19.123V19.1048C137.004 18.9589 137.113 18.8221 137.259 18.7948C137.377 18.7948 137.505 18.8768 137.541 18.9954Z" fill="#444359"/>
<path d="M147.387 66.1913C147.305 60.6304 129.273 56.1816 129.273 56.1816C128.142 57.4306 126.201 59.5364 118.023 59.5364C110.202 59.5364 107.075 57.5126 105.853 56.1816H98.1134C96.3904 56.1816 94.8133 57.1662 94.0931 58.7342C78.5863 92.6559 87.3015 130.543 90.8751 149.168C91.2033 150.882 123.566 149.724 138.161 150.882C141.315 151.146 147.697 86.4021 147.387 66.1913Z" fill="#FEE6C6"/>
<path d="M109.727 114.161C111.331 101.198 113.291 93.4217 114.795 95.9743C116.126 98.2351 115.388 109.576 113.391 120.515C113.401 120.515 109.043 119.713 109.727 114.161Z" fill="#FEBBA0"/>
<path d="M120.32 114.161C118.716 101.198 116.756 93.4217 115.252 95.9743C113.921 98.2351 114.659 109.576 116.656 120.515C116.646 120.515 121.004 119.713 120.32 114.161Z" fill="#FEBBA0"/>
<path d="M173.761 110.943H153.386L156.622 131.637L119.646 113.596C119.519 112.21 119.346 110.497 119.136 108.682C117.741 108.682 116.337 108.682 114.942 108.664C114.952 110.241 114.979 111.308 114.979 111.308C114.979 111.308 114.259 120.825 115.909 123.998C119.045 130.033 151.125 149.469 160.032 151.775C160.588 151.921 161.144 152.03 161.7 152.103C170.297 153.316 175.994 148.493 175.93 139.815L173.761 110.943Z" fill="#FEBBA0"/>
<path d="M110.548 108.591C110.229 110.633 109.946 112.602 109.727 114.161L73.8182 130.789L75.3315 110.952H54.9566L52.796 139.842C52.7413 148.52 58.439 153.334 67.0266 152.13C67.5827 152.048 68.1388 151.939 68.6948 151.802C77.6015 149.496 107.439 133.369 113.811 123.961C115.698 121.181 114.805 111.818 114.805 111.818C114.805 111.818 114.805 110.524 114.769 108.682C113.365 108.655 111.961 108.628 110.548 108.591Z" fill="#FEBBA0"/>
<path d="M80.5461 122.265C88.5137 98.6998 88.4499 98.6816 98.2317 56.1906C91.6862 56.6372 91.0116 55.5706 85.8518 58.2508C70.3723 66.2914 55.7954 92.7013 51.5016 122.265H80.5461Z" fill="#FEE6C6"/>
<path d="M151.488 119.941C146.802 103.249 129.271 56.1906 129.271 56.1906C146.802 55.598 170.723 78.4525 176.448 116.887L151.488 119.941Z" fill="#FEE6C6"/>
<path d="M147.395 83.0839L143.703 113.423" stroke="#EED2AD" stroke-width="1.5925" stroke-miterlimit="10" stroke-linecap="round"/>
<path d="M83.9006 88.0614L86.8361 120.515" stroke="#EED2AD" stroke-width="1.5925" stroke-miterlimit="10" stroke-linecap="round"/>
</svg>
