<svg width="353" height="102" viewBox="0 0 353 102" fill="none" xmlns="http://www.w3.org/2000/svg">
<g opacity="0.32">
<rect width="22.4581" height="29.7036" rx="11.229" transform="matrix(0.998454 0.0555809 -0.0453355 0.998972 328.854 47.1846)" fill="white" fill-opacity="0.17"/>
</g>
<g opacity="0.32">
<rect width="26.9411" height="35.82" rx="13.4705" transform="matrix(0.935939 0.352161 -0.376313 0.926493 341.345 76.8633)" fill="white" fill-opacity="0.26"/>
</g>
<g opacity="0.48">
<rect width="34.4614" height="50.4527" rx="17.2307" transform="matrix(-0.480297 0.877106 -0.894073 -0.447921 374.94 20.9531)" fill="white" fill-opacity="0.26"/>
</g>
<g opacity="0.48">
<rect width="25.7968" height="37.4347" rx="12.8984" transform="matrix(0.327201 0.944955 -0.958791 0.284112 236.605 50.542)" fill="white" fill-opacity="0.09"/>
</g>
<g opacity="0.32">
<rect width="26.5736" height="36.354" rx="13.2868" transform="matrix(0.769131 0.639091 -0.678888 0.734242 263.068 50.8721)" fill="white" fill-opacity="0.17"/>
</g>
<g opacity="0.32">
<rect width="45.5254" height="63.0722" rx="22.7627" transform="matrix(0.864733 -0.502232 0.550502 0.834834 258.198 28.0088)" fill="white" fill-opacity="0.26"/>
</g>
<g opacity="0.48">
<rect width="22.5335" height="30.448" rx="11.2667" transform="matrix(-0.840701 -0.541499 0.579252 -0.815149 318.113 108.233)" fill="white" fill-opacity="0.26"/>
</g>
<g opacity="0.32">
<rect width="26.5458" height="36.3938" rx="13.2729" transform="matrix(-0.756466 -0.654033 0.693774 -0.720193 308.624 17.4854)" fill="white" fill-opacity="0.26"/>
</g>
<g opacity="0.64">
<rect width="25.6828" height="37.588" rx="12.8414" transform="matrix(-0.484401 0.874846 -0.892145 -0.451749 266.607 37.3008)" fill="white" fill-opacity="0.26"/>
</g>
<g opacity="0.32">
<rect width="32.0902" height="46.4904" rx="16.0451" transform="matrix(0.344737 0.938699 -0.953715 0.300711 394.31 40.8113)" fill="white" fill-opacity="0.26"/>
</g>
<g opacity="0.32">
<rect width="22.4581" height="29.7036" rx="11.229" transform="matrix(-0.754898 0.655842 -0.663551 -0.748131 138.214 28.0029)" fill="white" fill-opacity="0.26"/>
</g>
<g opacity="0.32">
<rect width="26.9411" height="35.82" rx="13.4705" transform="matrix(-0.916711 0.399552 -0.375646 -0.926763 108.575 15.4189)" fill="white" fill-opacity="0.09"/>
</g>
<g opacity="0.48">
<rect width="34.4614" height="50.4527" rx="17.2307" transform="matrix(-0.266648 -0.963794 0.953405 -0.301693 123.435 78.9316)" fill="white" fill-opacity="0.17"/>
</g>
<g opacity="0.32">
<rect width="45.5254" height="63.0722" rx="22.7627" transform="matrix(-0.270306 0.962774 -0.976564 -0.215226 202.255 -7.47467)" fill="white" fill-opacity="0.09"/>
</g>
<g opacity="0.48">
<rect width="22.5335" height="30.448" rx="11.2667" transform="matrix(0.980327 -0.197383 0.152499 0.988304 103.379 -23.2693)" fill="white" fill-opacity="0.26"/>
</g>
<g opacity="0.32">
<rect width="26.5458" height="36.3938" rx="13.2729" transform="matrix(0.998318 -0.057971 0.0041908 0.999991 173.418 35.2109)" fill="white" fill-opacity="0.26"/>
</g>
<g opacity="0.32">
<rect width="32.0902" height="46.4904" rx="16.0451" transform="matrix(-0.901345 -0.433101 0.474549 -0.880229 95.7056 78.1837)" fill="white" fill-opacity="0.11"/>
</g>
<g opacity="0.32">
<rect width="22.4581" height="29.7036" rx="11.229" transform="matrix(0.997671 -0.0682105 0.0784412 0.996919 3.31201 20.4465)" fill="white" fill-opacity="0.26"/>
</g>
<g opacity="0.48">
<rect width="17.348" height="24.0717" rx="8.67402" transform="matrix(0.76778 0.640713 -0.683449 0.729998 4.96631 78.801)" fill="white" fill-opacity="0.26"/>
</g>
<g opacity="0.32">
<rect width="26.9411" height="35.82" rx="13.4705" transform="matrix(0.972279 0.233822 -0.258955 0.965889 19.3765 48.3542)" fill="white" fill-opacity="0.11"/>
</g>
<g opacity="0.48">
<rect width="34.4614" height="50.4527" rx="17.2307" transform="matrix(-0.368244 0.929729 -0.942566 -0.334021 45.8062 -11.2783)" fill="white" fill-opacity="0.26"/>
</g>
<g opacity="0.32">
<rect width="45.5254" height="63.0722" rx="22.7627" transform="matrix(0.796053 -0.605227 0.649433 0.760419 -69.1704 10.1484)" fill="white" fill-opacity="0.26"/>
</g>
<g opacity="0.48">
<rect width="22.5335" height="30.448" rx="11.2667" transform="matrix(-0.901165 -0.433476 0.474096 -0.880473 0.19873 82.3552)" fill="white" fill-opacity="0.17"/>
</g>
<g opacity="0.32">
<rect width="32.0902" height="46.4904" rx="16.0451" transform="matrix(0.458078 0.888912 -0.909253 0.416245 67.48 6.03516)" fill="white" fill-opacity="0.11"/>
</g>
</svg>
