<svg width="152" height="310" viewBox="0 0 152 310" fill="none" xmlns="http://www.w3.org/2000/svg">
<path d="M265.722 176.913C264.704 155.985 260.618 133.86 248.538 116.739L247.952 116.016C230.389 97.2037 214.721 84.7271 199.433 77.4639C202.204 74.1911 204.714 70.708 206.938 67.0466C216.602 51.0386 220.331 34.0428 217.775 17.9649C215.049 1.07173 205.578 -14.1117 191.791 -23.709C185.479 -28.1251 178.326 -31.2169 170.771 -32.7957C163.215 -34.3745 155.414 -34.4072 147.846 -32.8917C121.792 -27.7669 103.534 -5.95391 96.3569 28.6618L96.2537 29.3467C95.0809 40.9287 97.084 54.365 102.291 70.2985C81.4159 76.2992 63.5056 83.5624 47.7344 92.4376L47.3544 92.6799C39.2641 97.9585 31.9189 104.285 25.513 111.493C1.39172 138.705 -5.9263 172.604 4.8443 206.874C18.9549 251.702 62.3 291.275 110.228 303.109C128.931 307.703 145.186 309.995 159.747 309.995C170.686 309.995 180.697 308.695 190.046 306.123C203.805 302.34 212.957 289.02 218.661 276.833C222.015 269.644 230.389 264.85 235.877 259.161C242.685 252.075 248.791 244.356 254.111 236.109C263.55 221.531 266.149 203.804 266.013 186.776C265.966 183.533 265.881 180.239 265.722 176.913ZM109.951 31.0611C113.474 14.2891 123.41 -14.1303 150.501 -19.4601C156.25 -20.5904 162.169 -20.5539 167.904 -19.353C173.638 -18.152 179.068 -15.8113 183.868 -12.4717C194.601 -5.01746 201.985 6.8581 204.124 20.0894C206.713 36.3676 200.643 50.7963 195.084 60.0116C186.561 74.17 172.38 84.6572 158.058 87.3967C149.891 88.9621 141.743 88.3285 134.335 84.4196C126.769 80.4083 118.076 74.17 115.304 65.9564C113.322 60.0756 111.835 54.0418 110.857 47.9171C110.022 42.6758 108.84 36.3583 109.951 31.0611ZM242.238 228.599C234.855 242.282 223.005 253.864 210.738 263.187L209.289 262.604L208.942 262.465C198.105 258.835 181.372 256.501 164.771 254.311L187.133 238.988C205.733 225.384 217.986 211.501 224.539 196.457C230.544 182.718 234.39 161.091 225.646 145.428C217.503 130.985 205.076 122.534 189.722 120.959C183.364 120.279 176.935 120.743 170.742 122.329C163.626 124.25 157.027 127.714 151.42 132.472C148.302 135.131 145.472 138.108 142.976 141.352C142.737 141.109 142.507 140.886 142.254 140.667L141.874 140.322C137.652 136.348 133.28 132.234 128.176 128.703C108.99 115.541 80.656 119.59 63.6792 137.955C53.3261 149.137 52.5661 163.626 53.2229 176.34C53.7175 185.696 55.8907 194.89 59.6402 203.487C76.6874 242.934 118.93 262.143 159.559 267.468C175.509 269.56 193.517 271.927 203.974 275.249C198.344 285.293 192.551 290.982 186.148 292.952C166.962 298.268 143.929 297.271 113.61 289.803C70.0965 279.088 30.8232 243.293 18.0589 202.784C11.4915 181.879 9.25854 150.66 35.9317 120.536C41.4617 114.305 47.7981 108.83 54.7756 104.253C70.3404 95.5265 88.2132 88.3937 109.332 82.5561C122.72 94.823 136.146 105.483 160.647 100.824C170.621 98.9601 180.279 94.3431 188.737 87.6949C189.46 87.1265 196.102 91.0726 197.008 91.5571C200.039 93.1864 202.985 94.97 205.831 96.9009C212.4 101.413 218.609 106.42 224.403 111.879C230.703 117.717 237.069 123.461 241.155 131.088C255.378 157.76 256.898 197.389 244.148 224.816C243.557 226.092 242.925 227.352 242.252 228.594L242.238 228.599ZM143.586 248.036C142.343 247.663 140.926 247.183 140.302 246.941C139.472 246.666 138.82 246.475 138.426 246.326C116.514 239.883 86.8716 223.032 75.449 196.699C72.5047 189.974 70.809 182.775 70.4436 175.45C69.9276 165.853 70.3076 156.05 76.3449 149.542C82.7247 142.684 92.5618 137.997 102.432 137.997C108.105 137.935 113.659 139.611 118.339 142.796C122.378 145.591 126.103 149.067 130.038 152.766L130.418 153.111C132.83 155.403 135.122 157.817 137.286 160.341C139.908 163.323 142.221 167.539 146.668 164.418C151.777 160.891 155.262 154 159.475 149.444C163.786 144.748 168.894 140.564 175.176 138.887C179.365 137.826 183.714 137.533 188.01 138.02C197.636 138.98 205.231 144.291 210.565 153.786C215.898 163.281 213.328 179.047 208.688 189.66C203.373 201.824 192.987 213.42 177.113 225.068L143.586 248.036Z" fill="white"/>
</svg>
